Coordinates
version=1
nRows=13
nColumns=63
inDegrees=yes

Units are S.I. units (second, meters, Newtons, ...)
If the header above contains a line with 'inDegrees', this indicates whether rotational values are in degrees (yes) or radians (no).

endheader
time	pelvis_tilt	pelvis_list	pelvis_rotation	pelvis_tx	pelvis_ty	pelvis_tz	hip_flexion_r	hip_adduction_r	hip_rotation_r	knee_angle_r	knee_angle_r_beta	ankle_angle_r	subtalar_angle_r	mtp_angle_r	hip_flexion_l	hip_adduction_l	hip_rotation_l	knee_angle_l	knee_angle_l_beta	ankle_angle_l	subtalar_angle_l	mtp_angle_l	L5_S1_Flex_Ext	L5_S1_Lat_Bending	L5_S1_axial_rotation	L4_L5_Flex_Ext	L4_L5_Lat_Bending	L4_L5_axial_rotation	L3_L4_Flex_Ext	L3_L4_Lat_Bending	L3_L4_axial_rotation	L2_L3_Flex_Ext	L2_L3_Lat_Bending	L2_L3_axial_rotation	L1_L2_Flex_Ext	L1_L2_Lat_Bending	L1_L2_axial_rotation	L1_T12_Flex_Ext	L1_T12_Lat_Bending	L1_T12_axial_rotation	Abs_r3	Abs_r2	Abs_r1	Abs_t1	Abs_t2	neck_flexion	neck_bending	neck_rotation	arm_flex_r	arm_add_r	arm_rot_r	elbow_flex_r	pro_sup_r	wrist_flex_r	wrist_dev_r	arm_flex_l	arm_add_l	arm_rot_l	elbow_flex_l	pro_sup_l	wrist_flex_l	wrist_dev_l
0.000000	-1.930840	-4.661921	88.282100	0.002950	0.942486	0.579555	2.964679	-0.682245	5.558852	3.973729	0.069355	25.277185	-4.572365	0.000000	6.059908	0.272784	5.268006	7.914919	0.138141	27.831261	-8.276181	0.000000	0.096655	-0.226542	1.059617	0.179499	-0.301300	1.125843	0.158795	-0.550813	1.125843	0.110467	-0.550813	0.927165	0.089754	-0.461964	0.860939	0.055229	-0.350913	0.794713	0.690400	-2.562685	5.893271	0.000000	0.000000	22.018457	-1.501465	-11.131011	8.605997	-6.278686	51.425268	40.785031	22.366615	-3.656848	10.083688	23.092586	-3.184456	81.303065	39.930872	60.650734	-1.310250	6.770785
0.016667	-2.054769	-4.896990	88.336389	0.003066	0.941965	0.580434	3.370429	-0.779728	5.276090	4.031098	0.070356	25.730902	-4.241757	0.000000	6.553760	0.328636	4.676498	8.306520	0.144976	28.359960	-7.193396	0.000000	0.100294	-0.248088	1.214887	0.186256	-0.329957	1.290817	0.164773	-0.603200	1.290817	0.114626	-0.603200	1.063026	0.093133	-0.505900	0.987095	0.057308	-0.384288	0.911165	0.716391	-2.806417	6.756834	0.000000	0.000000	22.564282	-1.873080	-12.200238	7.974458	-6.176233	51.316225	40.306895	18.818438	-5.434088	9.987191	22.594189	-2.479676	79.895670	39.239326	63.327916	-2.666793	5.142809
0.033333	-2.141682	-5.043352	88.296067	0.003234	0.941577	0.581146	3.667911	-0.843336	5.070713	4.096701	0.071501	26.100975	-3.888095	0.000000	6.886931	0.358637	4.143732	8.599757	0.150094	28.783109	-6.363686	0.000000	0.100773	-0.263007	1.347216	0.187146	-0.349799	1.431417	0.165560	-0.639475	1.431417	0.115173	-0.639475	1.178814	0.093578	-0.536324	1.094613	0.057582	-0.407398	1.010412	0.719811	-2.975187	7.492813	0.000000	0.000000	22.911795	-2.151413	-12.996541	7.474494	-6.104801	51.258652	39.925772	16.189935	-6.791979	9.894821	22.203721	-1.933304	78.890231	38.680295	65.138189	-3.697339	3.903537
0.050000	-2.195135	-5.111170	88.170061	0.003449	0.941307	0.581699	3.868230	-0.876265	4.939010	4.168469	0.072754	26.395100	-3.518364	0.000000	7.075174	0.365458	3.669023	8.801657	0.153618	29.107819	-5.769862	0.000000	0.098528	-0.271895	1.458582	0.182977	-0.361621	1.549743	0.161872	-0.661086	1.549743	0.112608	-0.661086	1.276259	0.091493	-0.554449	1.185098	0.056299	-0.421166	1.093936	0.703778	-3.075732	8.112193	0.000000	0.000000	23.084365	-2.346033	-13.543192	7.092043	-6.060444	51.237866	39.633147	14.434031	-7.766919	9.805327	21.907256	-1.530698	78.235085	38.243790	66.184948	-4.434925	3.013916
0.066667	-2.218681	-5.110609	87.967297	0.003707	0.941144	0.582103	3.982492	-0.881711	4.877271	4.244335	0.074078	26.620972	-3.139548	0.000000	7.134242	0.351766	3.251684	8.919244	0.155670	29.341200	-5.394734	0.000000	0.093996	-0.275348	1.550957	0.174561	-0.366213	1.647892	0.154427	-0.669481	1.647892	0.107429	-0.669481	1.357087	0.087285	-0.561490	1.260153	0.053710	-0.426514	1.163218	0.671407	-3.114791	8.625958	0.000000	0.000000	23.105365	-2.466512	-13.863461	6.813047	-6.039215	51.239183	39.420509	13.503655	-8.395304	9.717457	21.690866	-1.257214	77.878567	37.919818	66.571590	-4.912585	2.434896
0.083333	-2.215874	-5.051832	87.696701	0.004003	0.941072	0.582369	4.021801	-0.862870	4.881786	4.322230	0.075437	26.786285	-2.758632	0.000000	7.079889	0.320231	2.891031	8.959543	0.156374	29.490364	-5.221110	0.000000	0.087614	-0.273961	1.626318	0.162708	-0.364368	1.727963	0.143941	-0.666109	1.727963	0.100134	-0.666109	1.423028	0.081358	-0.558661	1.321383	0.050063	-0.424366	1.219738	0.625818	-3.099102	9.045092	0.000000	0.000000	22.998164	-2.522422	-13.980618	6.623443	-6.037169	51.247918	39.279344	13.351732	-8.713533	9.629961	21.540625	-1.098208	77.769014	37.698388	66.401511	-5.163352	2.127423
0.100000	-2.190270	-4.945004	87.367202	0.004332	0.941079	0.582505	3.997264	-0.822938	4.948843	4.400087	0.076796	26.898736	-2.382603	0.000000	6.927867	0.273520	2.586377	8.929580	0.155851	29.562420	-5.231800	0.000000	0.079817	-0.268330	1.686639	0.148229	-0.356879	1.792054	0.131132	-0.652418	1.792054	0.091223	-0.652418	1.475809	0.074118	-0.547179	1.370394	0.045608	-0.415643	1.264979	0.570127	-3.035404	9.380581	0.000000	0.000000	22.786133	-2.523332	-13.917935	6.509173	-6.050359	51.249386	39.201138	13.931190	-8.758003	9.541587	21.442604	-1.039038	77.854763	37.569509	65.778107	-5.220263	2.052445
0.116667	-2.145423	-4.800287	86.987724	0.004690	0.941151	0.582522	3.919986	-0.765110	5.074732	4.475838	0.078118	26.966019	-2.018444	0.000000	6.693929	0.214303	2.337036	8.836379	0.154224	29.564482	-5.409613	0.000000	0.071043	-0.259051	1.733896	0.131934	-0.344538	1.842264	0.116717	-0.629856	1.842264	0.081195	-0.629856	1.517159	0.065971	-0.528256	1.408790	0.040594	-0.401270	1.300422	0.507453	-2.930435	9.643409	0.000000	0.000000	22.492644	-2.478816	-13.698682	6.456176	-6.074840	51.228903	39.177378	15.194955	-8.565110	9.451083	21.382878	-1.065058	78.084150	37.523190	64.804775	-5.116351	2.170911
0.133333	-2.084886	-4.627846	86.567194	0.005073	0.941275	0.582429	3.801073	-0.692583	5.255743	4.547414	0.079367	26.995831	-1.673141	0.000000	6.393830	0.145247	2.142323	8.686966	0.151616	29.503658	-5.737360	0.000000	0.061727	-0.246719	1.770063	0.114634	-0.328136	1.880692	0.101412	-0.599872	1.880692	0.070548	-0.599872	1.548805	0.057320	-0.503109	1.438176	0.035271	-0.382168	1.327547	0.440912	-2.790933	9.844560	0.000000	0.000000	22.141066	-2.398443	-13.346128	6.450391	-6.106664	51.171785	39.199552	17.095955	-8.171252	9.357198	21.347519	-1.161627	78.405512	37.549439	63.584911	-4.884652	2.443768
0.150000	-2.012215	-4.437845	86.114539	0.005474	0.941438	0.582236	3.651629	-0.608552	5.488164	4.612748	0.080508	26.995866	-1.353680	0.000000	6.043321	0.069023	2.001552	8.488367	0.148150	29.387061	-6.197849	0.000000	0.052307	-0.231930	1.797116	0.097139	-0.308467	1.909436	0.085935	-0.563914	1.909436	0.059781	-0.563914	1.572477	0.048572	-0.472951	1.460157	0.029888	-0.359259	1.347837	0.373623	-2.623637	9.995020	0.000000	0.000000	21.754771	-2.291785	-12.883545	6.477758	-6.141886	51.063347	39.259145	19.587117	-7.612826	9.258681	21.322599	-1.314100	78.767185	37.638265	62.221911	-4.558199	2.831964
0.166667	-1.930964	-4.240447	85.638686	0.005890	0.941626	0.581952	3.482761	-0.516213	5.768286	4.669772	0.081503	26.973819	-1.067044	0.000000	5.658157	-0.011703	1.914036	8.247605	0.143948	29.221800	-6.773890	0.000000	0.043218	-0.215279	1.817029	0.080260	-0.286322	1.930594	0.071003	-0.523431	1.930594	0.049394	-0.523431	1.589901	0.040132	-0.438998	1.476336	0.024695	-0.333468	1.362772	0.308702	-2.435285	10.105773	0.000000	0.000000	21.357129	-2.168412	-12.334204	6.524217	-6.176559	50.888905	39.347646	22.621366	-6.926230	9.154280	21.294193	-1.507833	79.117505	37.779676	60.819173	-4.170029	3.296447
0.183333	-1.864374	-4.092334	85.140585	0.006338	0.941836	0.581577	3.362518	-0.434730	6.042065	4.714890	0.082290	26.970865	-0.731876	0.000000	5.303374	-0.091281	1.703535	7.922039	0.138266	29.091393	-7.144959	0.000000	0.038037	-0.198723	1.824539	0.070638	-0.264302	1.938573	0.062491	-0.483176	1.938573	0.043472	-0.483176	1.596472	0.035321	-0.405237	1.482438	0.021734	-0.307823	1.368404	0.271694	-2.248000	10.147540	0.000000	0.000000	21.082581	-2.047931	-11.638995	6.619702	-6.183634	50.619820	39.400552	27.120186	-6.025272	8.927638	21.100977	-1.750825	78.853699	38.031100	59.943024	-3.962875	3.733005
0.200000	-1.787942	-3.943346	84.630747	0.006807	0.942029	0.581105	3.217328	-0.342512	6.471062	4.726446	0.082492	26.933880	-0.621541	0.000000	4.914600	-0.163461	1.759203	7.572816	0.132171	28.831881	-7.930738	0.000000	0.032007	-0.181457	1.839817	0.059440	-0.241338	1.954806	0.052584	-0.441196	1.954806	0.036581	-0.441196	1.609840	0.029722	-0.370028	1.494852	0.018289	-0.281078	1.379863	0.228623	-2.052683	10.232513	0.000000	0.000000	20.828560	-1.942756	-10.989482	6.646862	-6.191347	50.193101	39.491556	31.732066	-5.196431	8.734586	20.905546	-1.958216	78.570064	38.250322	59.379845	-3.717851	4.062138
